<svg xmlns="http://www.w3.org/2000/svg" width="23.016" height="16.112" viewBox="0 0 23.016 16.112">
  <g id="그룹_453" data-name="그룹 453" transform="translate(-84.55 -85.039)">
    <path id="패스_611" data-name="패스 611" d="M107.086,87.555a2.882,2.882,0,0,0-2.035-2.035c-1.795-.481-8.992-.481-8.992-.481s-7.2,0-8.992.481a2.882,2.882,0,0,0-2.035,2.035,32.153,32.153,0,0,0,0,11.08,2.882,2.882,0,0,0,2.035,2.035c1.795.481,8.992.481,8.992.481s7.2,0,8.992-.481a2.882,2.882,0,0,0,2.035-2.035,32.153,32.153,0,0,0,0-11.08" fill="#282828"/>
    <path id="패스_612" data-name="패스 612" d="M133.144,116.241v-6.905l5.98,3.453Z" transform="translate(-39.387 -19.694)" fill="#fff"/>
  </g>
</svg>
