<svg xmlns="http://www.w3.org/2000/svg" width="18.398" height="18.435" viewBox="0 0 18.398 18.435">
  <g id="그룹_454" data-name="그룹 454" transform="translate(-625 -47.276)">
    <path id="패스_613" data-name="패스 613" d="M625,59.87V53.117a.843.843,0,0,0,.036-.146q.023-.334.037-.668a5.937,5.937,0,0,1,.381-1.812,4.61,4.61,0,0,1,1.531-2.067,5.244,5.244,0,0,1,2.777-1.029c.636-.063,1.279-.058,1.919-.079.225-.007.45,0,.675,0a.831.831,0,0,0,.164-.036h3.358a.4.4,0,0,0,.11.036c.611.014,1.223.016,1.834.042.413.018.825.06,1.236.108a4.81,4.81,0,0,1,1.642.517,4.566,4.566,0,0,1,1.434,1.149,4.86,4.86,0,0,1,.827,1.433,7.171,7.171,0,0,1,.4,2.484,1.37,1.37,0,0,0,.036.219v6.5c-.012.024-.034.048-.036.073-.015.271-.017.543-.041.813a7.171,7.171,0,0,1-.116.98,4.925,4.925,0,0,1-1.5,2.7,4.873,4.873,0,0,1-1.652.978,7.539,7.539,0,0,1-2.493.368,1.324,1.324,0,0,0-.219.036H631.06a.47.47,0,0,0-.11-.036c-.516-.038-1.033-.061-1.546-.114a4.858,4.858,0,0,1-1.552-.452,4.709,4.709,0,0,1-1.561-1.184,4.485,4.485,0,0,1-.772-1.243,6.745,6.745,0,0,1-.483-2.646A.756.756,0,0,0,625,59.87Zm12.287,4.163,0-.017,1.152-.092a3.8,3.8,0,0,0,1.582-.469,2.97,2.97,0,0,0,1.219-1.288,4.259,4.259,0,0,0,.4-1.566c.046-.535.075-1.073.074-1.61,0-1.8-.022-3.609-.032-5.413a9.526,9.526,0,0,0-.144-1.814,3.293,3.293,0,0,0-.877-1.728,3.246,3.246,0,0,0-1.5-.828A8.323,8.323,0,0,0,637.033,49c-2-.016-4,.018-6,.024a7.754,7.754,0,0,0-1.649.15,3.137,3.137,0,0,0-1.993,1.266,3.8,3.8,0,0,0-.636,1.93c-.056.711-.065,1.426-.078,2.139-.012.663-.01,1.326,0,1.989q.028,1.964.073,3.928a4.276,4.276,0,0,0,.358,1.632,3,3,0,0,0,1.408,1.483,4.091,4.091,0,0,0,1.6.413c.584.045,1.17.072,1.756.075C633.678,64.039,635.482,64.033,637.287,64.033Z"/>
    <path id="패스_614" data-name="패스 614" d="M747.032,174.994a4.742,4.742,0,1,1,4.666,4.733A4.724,4.724,0,0,1,747.032,174.994Zm7.776-.007a3.042,3.042,0,1,0-3.208,3.037A3.023,3.023,0,0,0,754.808,174.987Z" transform="translate(-117.577 -118.479)" fill-rule="evenodd"/>
    <path id="패스_615" data-name="패스 615" d="M980.88,136.048a1.112,1.112,0,0,1,1.156-1.123,1.123,1.123,0,0,1-.072,2.244A1.108,1.108,0,0,1,980.88,136.048Z" transform="translate(-342.883 -84.448)" fill-rule="evenodd"/>
  </g>
</svg>
